<svg width="13" height="14" viewBox="0 0 13 14" fill="none" xmlns="http://www.w3.org/2000/svg">
<path d="M4.4375 6.33333V3C4.4375 1.89543 5.36088 1 6.5 1C7.63912 1 8.5625 1.89543 8.5625 3V6.31153M5.4 13H7.6C9.14014 13 9.91021 13 10.4985 12.7093C11.0159 12.4537 11.4366 12.0457 11.7002 11.544C12 10.9735 12 10.2268 12 8.73333V7.13333C12 6.3866 12 6.0132 11.8501 5.728C11.7183 5.47713 11.508 5.27315 11.2493 5.14533C10.9551 5 10.5701 5 9.8 5H3.2C2.42993 5 2.04489 5 1.75076 5.14533C1.49204 5.27315 1.28169 5.47713 1.14987 5.728C1 6.0132 1 6.3866 1 7.13333V8.73333C1 10.2268 1 10.9735 1.29973 11.544C1.56339 12.0457 1.98408 12.4537 2.50153 12.7093C3.08978 13 3.85986 13 5.4 13Z" stroke="white" stroke-linecap="square" stroke-linejoin="round"/>
</svg>
