<svg width="21" height="20" viewBox="0 0 21 20" fill="none" xmlns="http://www.w3.org/2000/svg">
<path fill-rule="evenodd" clip-rule="evenodd" d="M0.894775 10.4575H5.2085V14.7712H0.894775V10.4575ZM6.12353 10.4575H10.4373V14.7712H6.12353V10.4575ZM11.3523 10.4575H15.666V14.7712H11.3523V10.4575ZM16.581 10.4575H20.8948V14.7712H16.581V10.4575ZM0.894775 15.6863H5.2085V20H0.894775V15.6863ZM6.12353 15.6863H10.4373V20H6.12353V15.6863ZM11.3523 15.6863H15.666V20H11.3523V15.6863ZM16.581 15.6863H20.8948V20H16.581V15.6863ZM0.894775 5.22876H5.2085V9.54248H0.894775V5.22876ZM6.12353 5.22876H10.4373V9.54248H6.12353V5.22876ZM11.3523 5.22876H15.666V9.54248H11.3523V5.22876ZM16.581 5.22876H20.8948V9.54248H16.581V5.22876ZM0.894775 0H5.2085V4.31373H0.894775V0ZM6.12353 0H10.4373V4.31373H6.12353V0ZM11.3523 0H15.666V4.31373H11.3523V0ZM16.581 0H20.8948V4.31373H16.581V0Z" fill="black"/>
</svg>
